<svg width="130" height="130" viewBox="0 0 130 130" fill="none" xmlns="http://www.w3.org/2000/svg">
<rect width="130" height="130" rx="65" fill="white" fill-opacity="0.26"/>
<path d="M86.7917 63.4584H68.5417V45.2084C68.5417 44.4017 68.2212 43.628 67.6508 43.0576C67.0804 42.4871 66.3067 42.1667 65.5 42.1667C64.6933 42.1667 63.9196 42.4871 63.3492 43.0576C62.7788 43.628 62.4583 44.4017 62.4583 45.2084V63.4584H44.2083C43.4016 63.4584 42.628 63.7788 42.0576 64.3492C41.4871 64.9197 41.1667 65.6933 41.1667 66.5C41.1667 67.3067 41.4871 68.0804 42.0576 68.6508C42.628 69.2212 43.4016 69.5417 44.2083 69.5417H62.4583V87.7917C62.4583 88.5984 62.7788 89.3721 63.3492 89.9425C63.9196 90.5129 64.6933 90.8334 65.5 90.8334C66.3067 90.8334 67.0804 90.5129 67.6508 89.9425C68.2212 89.3721 68.5417 88.5984 68.5417 87.7917V69.5417H86.7917C87.5984 69.5417 88.372 69.2212 88.9425 68.6508C89.5129 68.0804 89.8333 67.3067 89.8333 66.5C89.8333 65.6933 89.5129 64.9197 88.9425 64.3492C88.372 63.7788 87.5984 63.4584 86.7917 63.4584Z" fill="white" fill-opacity="0.8"/>
</svg>
