<svg width="100" height="100" viewBox="0 0 100 100" fill="none" xmlns="http://www.w3.org/2000/svg">
<path fill-rule="evenodd" clip-rule="evenodd" d="M87.4646 51.9623C86.4349 51.9092 85.6481 51.0311 85.6481 50C85.6481 48.9689 86.4349 48.0908 87.4646 48.0377L91.4098 47.8342C92.6698 47.7693 93.75 48.7383 93.75 50C93.75 51.2617 92.6698 52.2307 91.4098 52.1658L87.4646 51.9623ZM80.8761 32.1709C81.3925 33.0631 82.5138 33.4325 83.432 32.9638L86.9445 31.1704C88.0716 30.595 88.5223 29.2082 87.8885 28.1129C87.2546 27.0176 85.8316 26.7232 84.7709 27.4134L81.4653 29.5645C80.6012 30.1268 80.3598 31.2786 80.8761 32.1709ZM67.8291 19.1239C68.7214 19.6402 69.8732 19.3988 70.4355 18.5347L72.5865 15.2291C73.2768 14.1684 72.9824 12.7454 71.8871 12.1115C70.7918 11.4777 69.405 11.9284 68.8296 13.0555L67.0362 16.568C66.5675 17.4862 66.9369 18.6075 67.8291 19.1239ZM50 14.3519C51.0311 14.3519 51.9092 13.5651 51.9623 12.5354L52.1658 8.59015C52.2307 7.33018 51.2617 6.25 50 6.25C48.7383 6.25 47.7693 7.33017 47.8342 8.59016L48.0377 12.5354C48.0908 13.5651 48.9689 14.3519 50 14.3519ZM32.1709 19.1239C33.0631 18.6075 33.4325 17.4862 32.9638 16.568L31.1704 13.0555C30.595 11.9284 29.2082 11.4777 28.1129 12.1115C27.0176 12.7454 26.7232 14.1684 27.4134 15.2291L29.5645 18.5347C30.1268 19.3988 31.2786 19.6402 32.1709 19.1239ZM19.1239 32.1709C19.6402 31.2786 19.3988 30.1268 18.5347 29.5645L15.2291 27.4135C14.1684 26.7232 12.7454 27.0176 12.1115 28.1129C11.4777 29.2082 11.9284 30.595 13.0555 31.1704L16.568 32.9638C17.4862 33.4325 18.6075 33.0631 19.1239 32.1709ZM12.5354 48.0377C13.5651 48.0908 14.3519 48.9689 14.3519 50C14.3519 51.0311 13.5651 51.9092 12.5354 51.9623L8.59016 52.1658C7.33017 52.2307 6.25 51.2617 6.25 50C6.25 48.7383 7.33018 47.7693 8.59015 47.8342L12.5354 48.0377ZM19.1239 67.8291C18.6075 66.9369 17.4862 66.5675 16.568 67.0362L13.0555 68.8296C11.9284 69.405 11.4777 70.7918 12.1115 71.8871C12.7454 72.9824 14.1684 73.2768 15.2291 72.5865L18.5347 70.4355C19.3988 69.8732 19.6402 68.7214 19.1239 67.8291ZM32.1709 80.8761C31.2786 80.3598 30.1268 80.6012 29.5645 81.4653L27.4135 84.7709C26.7232 85.8316 27.0176 87.2546 28.1129 87.8885C29.2082 88.5223 30.595 88.0716 31.1704 86.9445L32.9638 83.432C33.4325 82.5138 33.0631 81.3925 32.1709 80.8761ZM50 85.6481C48.9689 85.6481 48.0908 86.4349 48.0377 87.4646L47.8342 91.4098C47.7693 92.6698 48.7383 93.75 50 93.75C51.2617 93.75 52.2307 92.6698 52.1658 91.4098L51.9623 87.4646C51.9092 86.4349 51.0311 85.6481 50 85.6481ZM67.8291 80.8761C66.9369 81.3925 66.5675 82.5138 67.0362 83.432L68.8296 86.9445C69.405 88.0716 70.7918 88.5223 71.8871 87.8885C72.9824 87.2546 73.2768 85.8316 72.5866 84.7709L70.4355 81.4653C69.8732 80.6012 68.7214 80.3598 67.8291 80.8761ZM80.8761 67.8291C80.3598 68.7214 80.6012 69.8732 81.4653 70.4355L84.7709 72.5865C85.8316 73.2768 87.2546 72.9824 87.8885 71.8871C88.5223 70.7918 88.0716 69.405 86.9445 68.8296L83.432 67.0362C82.5138 66.5675 81.3925 66.9369 80.8761 67.8291Z" fill="#FFDE33"/>
<path d="M79.9768 50C79.9768 66.5557 66.5557 79.9768 50 79.9768C33.4442 79.9768 20.0231 66.5557 20.0231 50C20.0231 33.4442 33.4442 20.0231 50 20.0231C66.5557 20.0231 79.9768 33.4442 79.9768 50Z" fill="#FFDE33"/>
</svg>
